<?xml version="1.0" standalone="no"?>
<!DOCTYPE svg PUBLIC "-//W3C//DTD SVG 1.1//EN" "http://www.w3.org/Graphics/SVG/1.1/DTD/svg11.dtd" >
<svg xmlns="http://www.w3.org/2000/svg">
<metadata></metadata>
<defs>
<font id="47bold" horiz-adv-x="1075" >
<font-face units-per-em="2048" ascent="1638" descent="-410" />
<missing-glyph horiz-adv-x="512" />
<glyph horiz-adv-x="0" />
<glyph unicode="&#xd;" horiz-adv-x="512" />
<glyph horiz-adv-x="0" />
<glyph horiz-adv-x="0" />
<glyph unicode=" "  horiz-adv-x="512" />
<glyph unicode="&#x09;" horiz-adv-x="512" />
<glyph unicode="&#xa0;" horiz-adv-x="512" />
<glyph unicode="0" d="M66 -45v372v299v231v171v248q0 121 57 207q29 41 62.5 68.5t68.5 43.5q68 35 116 39t58 4h221q119 0 205 -57q41 -29 70 -63.5t45 -67.5q33 -68 37 -116t6 -58v-1321q0 -59 -15.5 -112.5t-44.5 -94.5t-62.5 -68.5t-68.5 -44.5q-33 -16 -62.5 -25t-53 -13.5t-38 -4.5 h-18.5h-221h-2q-59 0 -111.5 15.5t-93.5 42.5q-41 29 -68.5 63.5t-43.5 67.5q-35 68 -39 116t-4 58zM350 -43v-6q0 -10 6 -25q6 -27 23 -39q4 -4 14 -7t35 -3h219h6q4 2 10.5 2t14.5 4q29 10 39 23q4 6 7 16t3 33v1319q0 4 -2 6q0 4 -4 25q-8 29 -25 38q-4 4 -14 7.5 t-33 3.5h-221h-4q-4 -2 -11 -2t-14 -4q-29 -8 -39 -23q-4 -6 -7 -16.5t-3 -32.5v-1319z" />
<glyph unicode="1" d="M313 1188l451 450v-2046h-277v1422z" />
<glyph unicode="2" d="M66 -266q0 123 23.5 239.5t62 228t89 217t105.5 202.5q53 96 108.5 185t103.5 166t87 140.5t60 108.5q10 23 15 37t7 18q-2 23 -4 33t-6 14q-6 8 -19 16q-10 6 -27.5 10.5t-23.5 4.5h-2h-217h-4q-4 -2 -11 -2t-14 -4q-33 -10 -39 -23q-4 -6 -7 -16.5t-3 -32.5h-284 q0 121 57 207q29 41 62.5 68.5t68.5 43.5q68 35 116 39t58 4h221q6 0 36 -2t73 -16q45 -12 98 -43t96 -94q29 -41 44.5 -94.5t15.5 -112.5q-2 -47 -13.5 -85t-27.5 -75q-16 -39 -38 -77t-46 -78q-47 -80 -106.5 -171.5t-121.5 -193.5q-102 -168 -186 -353.5t-113 -365.5h287 h4q4 2 11.5 2t15.5 4q29 10 39 23q2 6 5 16t5 33h285q0 -59 -15.5 -112.5t-44.5 -94.5t-62.5 -68.5t-68.5 -44.5q-33 -16 -62.5 -25t-53 -13.5t-38 -4.5h-18.5h-583v142z" />
<glyph unicode="3" d="M20 -45h285q0 -23 3 -33t7 -14q6 -8 19 -17q10 -8 27.5 -11t23.5 -3h219q23 0 33 3t14 7q8 6 17 17q8 12 11 29.5t3 23.5v879q0 23 -3 32t-7 15q-2 6 -17 16q-12 6 -29.5 10t-21.5 4h-2h-227l219 441h-211q-23 0 -32 -3t-15 -8q-8 -6 -17 -18q-6 -10 -9 -26.5t-5 -22.5 v-2l-65 2h-220q0 6 2.5 35.5t16.5 74.5q12 43 44 97.5t95 95.5q84 59 205 59h442h230l-250 -497q29 -16 55 -41t49 -60q57 -86 58 -204v-881q0 -6 -2 -36t-15 -75q-14 -43 -45 -97t-94 -97q-86 -57 -205 -58h-2h-221q-6 0 -36 2.5t-75 16.5q-43 12 -97 43t-95 94 q-29 41 -44.5 94.5t-15.5 112.5z" />
<glyph unicode="4" d="M31 -109l708 1747h308l-594 -1464h229q6 0 36 -2t75 -16q43 -12 97 -44t97 -96q57 -82 57 -202v-222h-284v222q0 23 -3 32t-7 15q-2 6 -17 16q-12 6 -28.5 9t-22.5 5h-651z" />
<glyph unicode="5" d="M66 -45h247l37 2v-6q0 -4 4 -25q8 -27 25 -39q4 -4 14 -7t35 -3h219h4q4 2 11.5 2t15.5 4q31 10 37 23q4 6 8 16t4 33v879v2l-2 4q0 4 -4 24q-8 29 -25 39q-4 4 -14 7t-33 3h-221q-6 0 -36 2.5t-75 14.5q-43 14 -97 45t-97 94q-57 86 -57 207v221v141h583h219v-284h-219 h-299v-78q0 -23 3 -33t5 -14q4 -6 19 -17q12 -8 29.5 -11t21.5 -3h221q59 0 111.5 -15.5t93.5 -43.5q41 -29 70 -62.5t45 -66.5q33 -68 37 -117t6 -57v-50v-131v-178v-196.5v-184.5v-141q0 -59 -15.5 -112.5t-44.5 -94.5t-62.5 -68.5t-68.5 -44.5q-33 -16 -62.5 -25 t-53 -13.5t-38 -4.5h-18.5h-221h-2q-59 0 -111.5 15.5t-93.5 42.5q-41 29 -68.5 63.5t-43.5 67.5q-35 68 -39 116t-4 58z" />
<glyph unicode="6" d="M66 -45v301v131v6v883q0 6 2 35.5t14 74.5q14 43 45 97.5t94 97.5q86 57 207 57h219q8 0 38 -2t75 -16q43 -12 96 -43t96 -94q29 -41 44.5 -94.5t15.5 -112.5h-285q0 23 -3 33t-7 14q-6 8 -19 16q-10 8 -27.5 11.5t-23.5 3.5h-219q-23 0 -33 -3t-14 -8q-8 -6 -16 -18 q-8 -10 -11.5 -27.5t-3.5 -21.5v-2v-881q0 -23 3 -33t5 -14q4 -6 19 -16q12 -6 29.5 -10.5t21.5 -4.5h219q8 0 38 -2t75 -14q43 -14 96 -45t96 -94q29 -41 44.5 -94.5t15.5 -110.5q0 -59 -15.5 -112.5t-44.5 -94.5t-62.5 -68.5t-68.5 -44.5q-66 -35 -116 -39t-58 -4h-219 q-8 0 -37 2.5t-74 16.5q-43 12 -97 43t-97 94q-57 86 -57 207zM350 41v-86q0 -23 3 -33t5 -14q4 -6 19 -17q12 -6 28.5 -10t22.5 -4h219h4q4 2 11.5 2t15.5 4q29 11 39 23q2 6 6 16t4 33t-3 32t-7 13q-6 8 -19 16q-10 8 -27.5 11.5t-23.5 3.5h-2h-217q-6 0 -26.5 1t-51.5 9z " />
<glyph unicode="7" d="M35 -406q43 125 95 279t108.5 316.5t114 329.5t110.5 320.5t99 285.5t79 229h-20h-222q-23 0 -33 -3t-14 -8q-8 -6 -16 -18q-6 -10 -10 -26.5t-4 -22.5v-2l-68 2h-217q0 6 2 35.5t16 74.5q12 43 43 97.5t95 95.5q41 29 94 44t112 15h222h419l-65 -188l-19 -58 q-20 -57 -55 -155t-81 -230.5t-97 -283.5q-49 -139 -100.5 -287.5t-101.5 -295t-97 -287t-88 -261.5h-297z" />
<glyph unicode="8" d="M65 371q1 168 1 272v193q0 119 57 204q4 4 6 7.5t4 7.5q-2 6 -10 14q-57 86 -57 207t57 207q29 41 62.5 68.5t68.5 43.5q68 35 116 39t58 4h221q119 0 205 -57q41 -29 69.5 -63.5t45.5 -67.5q33 -68 38 -116t5 -58q0 -59 -15.5 -112.5t-44.5 -94.5q-4 -4 -5 -7t-5 -7 q8 -12 14.5 -23.5t12.5 -21.5q33 -68 37 -117t6 -57v-881q0 -59 -15.5 -112.5t-44.5 -94.5t-62.5 -68.5t-68.5 -44.5q-33 -16 -62.5 -25t-53 -13.5t-38 -4.5h-18.5h-221h-2q-119 0 -205 58q-41 29 -68.5 63.5t-43.5 67.5q-35 68 -39 116t-4 58q-2 248 -1 416zM350 -43v-6 q0 -4 4 -25q8 -27 25 -39q4 -4 14 -7t35 -3h219h6q4 2 10.5 2t14.5 4q29 10 39 23q4 6 7 16t3 33v879v2l-2 4q0 4 -4 24q-8 29 -25 39q-4 4 -14 7t-33 3h-86h-133h-6q-4 -2 -11 -3t-14 -3q-29 -8 -39 -24q-4 -4 -7 -14.5t-3 -32.5v-879zM350 1276q0 -23 3 -33t5 -14 q4 -6 19 -17q12 -8 29.5 -11t21.5 -3h219h6q8 0 25 6q27 6 39 23q4 4 6 14t4 33q0 4 -2 6q0 4 -4 25q-8 29 -25 38q-4 4 -14 7.5t-33 3.5h-219h-6q-12 0 -25 -6q-29 -9 -39 -23q-4 -6 -7 -16.5t-3 -32.5z" />
<glyph unicode="9" d="M66 -45h284q0 -23 2 -33t6 -14q4 -6 19 -17q12 -8 29.5 -11t21.5 -3h219q23 0 33 3t14 7q10 6 17 17q8 12 12 29.5t4 21.5v881q0 23 -3 32t-7 15q-4 4 -19 16q-12 6 -29.5 10t-21.5 4h-2h-217q-8 0 -38 2.5t-73 14.5q-43 14 -97 45t-97 94q-57 86 -57 207t57 207 q29 41 62.5 68.5t68.5 43.5q68 35 116 39t58 4h219q8 0 38 -2t73 -16q45 -12 98 -43t96 -94q29 -41 44.5 -94.5t15.5 -112.5v-149.5v-134v-101.5v-53v-2v-881q0 -6 -3 -36t-16 -75q-12 -43 -43.5 -97t-95.5 -97q-86 -57 -205 -58h-2h-219q-8 0 -38 2.5t-73 16.5 q-43 12 -97 43t-97 94q-57 86 -57 207zM350 1276q0 -23 2 -33t6 -14q4 -6 19 -17q12 -8 28.5 -11t22.5 -3h2h217q6 0 26.5 -1t53.5 -9v88q0 23 -3 33t-7 14q-6 8 -19 16q-12 8 -29.5 11.5t-21.5 3.5h-2h-215h-6q-4 -2 -11 -2t-14 -4q-33 -10 -39 -23q-4 -6 -7 -16.5 t-3 -32.5z" />
<glyph unicode="A" horiz-adv-x="1007" d="M0 -408v1244v440q0 6 2 35.5t16 74.5q12 43 43 97.5t95 97.5q86 57 206 57h584v-362v-2v-1682h-284v1330q-33 -6 -53.5 -7.5t-24.5 -1.5h-222q-23 0 -33 -3t-14 -7q-8 -6 -16 -18q-8 -10 -11 -26.5t-3 -22.5v-1244h-285zM285 1190q33 8 77 8h220h6q8 0 24 6q27 7 39 23 q4 4 7.5 14t3.5 33v80h-300q-23 0 -33 -3t-14 -8q-8 -6 -16 -16q-8 -12 -11 -29.5t-3 -21.5v-2v-84z" />
<glyph unicode="B" horiz-adv-x="991" d="M0 -408v1680v4v362h362q8 0 37 -2t74 -16q43 -12 97.5 -43t97.5 -94q57 -86 57 -207q2 -35 8 -47t27 -37q18 -25 56 -59t75 -95q25 -41 40 -92t15 -110v-881q0 -59 -15.5 -112.5t-43.5 -94.5q-29 -41 -62.5 -68.5t-66.5 -44.5q-68 -35 -116 -39t-58 -4h-584zM285 -123 h297h6q8 0 24 6q29 8 39 23q4 6 7.5 16t3.5 33v879v6q-2 4 -2.5 10t-4.5 14q-10 31 -24 39q-4 4 -14.5 7t-32.5 3q-176 0 -299 41v-1077zM285 1286l4 -8t10 -12q10 -10 43 -28.5t104 -29.5q-6 31 -6 68q0 23 -3 33t-5 14q-4 4 -18 16q-12 8 -29.5 11.5t-22.5 3.5h-2h-75v-68 z" />
<glyph unicode="C" horiz-adv-x="946" d="M0 -45v1321q0 121 57 207q29 41 64 68.5t67 43.5q68 35 116 39t58 4h222q119 0 204 -57q43 -29 71 -63.5t44 -67.5q33 -68 37 -116t6 -58h-248l-36 -2v6q-2 4 -2.5 10t-4.5 15q-8 29 -24 38q-4 4 -14.5 7.5t-32.5 3.5h-219h-7q-4 -2 -10 -2t-14 -4q-29 -8 -39 -23 q-4 -6 -7 -16.5t-3 -32.5v-1319v-6q2 -4 2 -10.5t4 -14.5q8 -29 22 -39q6 -4 16.5 -7t32.5 -3h220h6q4 2 10 2t14 4q29 9 39 23q4 6 7.5 16t3.5 33h284q0 -59 -15.5 -112.5t-43.5 -94.5q-29 -41 -62.5 -68.5t-66.5 -44.5q-68 -35 -116 -39t-58 -4h-222h-2q-59 0 -111 15.5 t-93 44.5t-69 62.5t-44 66.5q-33 68 -38 116t-5 58z" />
<glyph unicode="D" horiz-adv-x="1003" d="M0 -408v1905v141h141h443q119 0 204 -57q43 -29 71 -63.5t44 -67.5q33 -68 38 -116t5 -58v-1321q0 -59 -15.5 -112.5t-43.5 -94.5q-29 -41 -62.5 -68.5t-66.5 -44.5q-68 -35 -116 -39t-58 -4h-584zM285 -123h297h6q8 0 24 6q29 8 39 23q4 6 7.5 16t3.5 33v741v578v6 q-2 4 -2.5 10t-4.5 15q-8 29 -24 38q-4 4 -14.5 7.5t-32.5 3.5h-299v-1477z" />
<glyph unicode="E" horiz-adv-x="946" d="M0 -45v1683h803v-284h-518v-164q33 8 77 8h222v-285h-222q-23 0 -33 -3t-14 -7q-8 -6 -16 -18q-6 -10 -10 -26.5t-4 -22.5v-2v-877v-6q2 -4 2 -10.5t4 -14.5q8 -29 22 -39q6 -4 16.5 -7t32.5 -3h220h6q4 2 10 2t14 4q29 8 39 23q4 6 7.5 16t3.5 33h284 q0 -59 -15.5 -112.5t-43.5 -94.5q-29 -41 -62.5 -68.5t-66.5 -44.5q-68 -35 -116 -39t-58 -4h-222h-2q-59 0 -111 15.5t-93 44.5t-69 62.5t-44 66.5q-33 68 -38 116t-5 58z" />
<glyph unicode="F" horiz-adv-x="802" d="M0 -408v1244v440q0 59 15.5 112.5t43.5 94.5q29 41 63 68.5t66 43.5q68 35 116 39t58 4h441v-284h-438h-7q-10 0 -24 -6q-29 -9 -39 -23q-4 -6 -7 -16.5t-3 -32.5v-86q33 8 77 8h222v-285h-222q-23 0 -33 -3t-14 -7q-8 -6 -16 -18q-6 -10 -10 -26.5t-4 -22.5v-1244h-285z " />
<glyph unicode="G" horiz-adv-x="993" d="M0 -266v1542q0 59 15.5 112.5t43.5 94.5q29 41 63 68.5t66 43.5q68 35 116 39t58 4h441v-284h-438h-7q-4 -2 -10 -2t-14 -4q-29 -8 -39 -23q-4 -6 -7 -16.5t-3 -32.5v-1399h297h6q4 2 10 2t14 4q29 8 39 23q4 6 7.5 16t3.5 33v958h-300v285h584v-143v-1100 q0 -59 -15.5 -112.5t-43.5 -94.5q-29 -41 -62.5 -68.5t-66.5 -44.5q-68 -35 -116 -39t-58 -4h-584v142z" />
<glyph unicode="H" horiz-adv-x="1007" d="M0 -408v1244v2v800h285v-448q33 8 77 8h220h6q8 0 24 6q27 6 39 23q4 4 7.5 14t3.5 35v362h284v-2046h-284v1330q-33 -6 -53.5 -7.5t-24.5 -1.5h-222q-23 0 -33 -3t-14 -7q-8 -6 -16 -18q-8 -10 -11 -26.5t-3 -22.5v-1244h-285z" />
<glyph unicode="I" horiz-adv-x="346" d="M0 -408v2046h285v-2046h-285z" />
<glyph unicode="J" horiz-adv-x="1007" d="M0 -45h248l37 2v-6q2 -4 2 -10.5t4 -14.5q8 -29 22 -39q6 -4 16.5 -7t32.5 -3h222h78v1761h284v-2046h-362h-222h-2q-59 0 -111 15.5t-93 42.5q-41 29 -69 63.5t-44 67.5q-33 68 -38 116t-5 58z" />
<glyph unicode="K" horiz-adv-x="862" d="M0 -408v2046h285v-530q8 2 13 2h9h166h12q6 10 9 25q2 4 2 10v174q0 8 2 32.5t12 61.5t35.5 84t79.5 88q37 25 83 39t95 14v-284q-12 0 -12 -2q-4 -4 -9 -23q-2 -4 -2 -10v-176q0 -6 -2 -31t-12 -63q-4 -16 -12.5 -38t-22.5 -44q4 -6 7 -13.5t7 -13.5q27 -59 31 -99 t4 -50v-879q0 -2 1 -6t1 -8q5 -15 9 -19q0 -2 2 -2h10v-285h-2q-49 0 -95.5 14.5t-80.5 41.5q-35 25 -58.5 55.5t-36.5 58.5q-29 59 -31.5 99.5t-2.5 50.5v879q0 4 -1 7t-1 7q-4 14 -9 18h-4q-2 0 -3 1t-5 1h-164q-2 0 -4 -1t-6 -1t-6 -2l-4 -4q-2 0 -2 -4q-2 -4 -2 -20 v-1201h-285z" />
<glyph unicode="L" horiz-adv-x="946" d="M0 -408v2046h285v-1761h297h6q4 2 10 2t14 4q29 8 39 23q4 6 7.5 16t3.5 33h284q0 -59 -15.5 -112.5t-43.5 -94.5q-29 -41 -62.5 -68.5t-66.5 -44.5q-68 -35 -116 -39t-58 -4h-584z" />
<glyph unicode="M" horiz-adv-x="1669" d="M0 -408v2046h436q4 0 43 -2t99 -12q49 -10 107 -27.5t118 -58.5q35 25 71.5 41t71.5 27q88 27 153.5 29.5t71.5 2.5h435v-2046h-283v1762h-152h-6h-18q-14 -2 -30.5 -3t-37.5 -5q-39 -8 -75.5 -21.5t-47.5 -26.5q-10 -10 -10 -11v-11v-1684h-284v1684q-2 10 -2.5 11 t-6.5 9q-16 16 -61 33q-47 16 -96.5 20.5t-57.5 4.5h-2h-151v-1762h-285z" />
<glyph unicode="N" horiz-adv-x="1003" d="M0 -408v2046h436q4 0 43 -2t99 -12q59 -10 128.5 -33.5t135.5 -81.5l12 -12h92v-221v-266v-1418h-284v1684q-2 10 -2.5 11t-6.5 9q-16 16 -61 33q-47 16 -95 20.5t-59 4.5h-2h-151v-1762h-285z" />
<glyph unicode="O" horiz-adv-x="1003" d="M0 -45v1321v221v141h584q6 0 35.5 -2t74.5 -16q43 -12 97.5 -43t95.5 -94q29 -41 44 -94.5t15 -112.5v-1321q0 -59 -15.5 -112.5t-43.5 -94.5q-29 -41 -62.5 -68.5t-66.5 -44.5q-68 -35 -116 -39t-58 -4h-222h-2q-59 0 -111 15.5t-93 44.5t-69 62.5t-44 66.5 q-33 68 -38 116t-5 58zM285 -43v-6q2 -4 2 -10.5t4 -14.5q8 -29 22 -39q6 -4 16.5 -7t32.5 -3h220h6q4 2 10 2t14 4q29 8 39 23q4 6 7.5 16t3.5 33v741v580q0 23 -3.5 33t-7.5 14q-6 8 -18 16q-10 8 -27.5 11.5t-21.5 3.5h-2h-297v-78v-1319z" />
<glyph unicode="P" horiz-adv-x="946" d="M0 -408v2046h584q6 0 35.5 -2t74.5 -16q43 -12 97.5 -43t95.5 -94q29 -41 44 -94.5t15 -112.5v-221v-142h-661v-1321h-285zM285 1198h377v78q0 23 -3.5 33t-7.5 14q-6 8 -18 16q-10 8 -28.5 11.5t-22.5 3.5h-297v-156z" />
<glyph unicode="Q" horiz-adv-x="1001" d="M0 -45v741v580q0 6 2 35.5t16 74.5q12 43 43 97.5t95 97.5q86 57 206 57h222q6 0 35.5 -2t74.5 -16q43 -12 97.5 -43t95.5 -94q29 -41 44 -94.5t15 -112.5v-1321v-59l-143 -142v-162q-6 0 -36 2.5t-75 16.5q-4 2 -11 3t-13 5l-25 -27h-59h-222q-6 0 -35.5 2.5t-74.5 16.5 q-43 12 -97.5 43t-95.5 94q-29 41 -44 94.5t-15 112.5zM285 -45q0 -23 3 -33t7 -14q6 -8 18 -17q10 -6 26.5 -10t22.5 -4h87q-4 18 -6.5 37.5t-2.5 40.5h162l60 57v1264q0 23 -3.5 33t-7.5 14q-6 8 -18 16q-10 6 -26.5 10.5t-22.5 4.5h-222q-23 0 -33 -3t-14 -8 q-8 -6 -16 -18q-6 -10 -10 -26.5t-4 -22.5v-2v-1319z" />
<glyph unicode="R" horiz-adv-x="993" d="M0 -408v2046h362q6 0 36 -2t75 -16q43 -12 97.5 -43t97.5 -94q29 -41 42 -94.5t15 -112.5q0 -35 7 -47t28 -37q18 -25 56 -58.5t75 -95.5q25 -41 40 -92t15 -110v-1244h-284v1242v6q-4 8 -7 24q-8 29 -24 39q-4 4 -14.5 7t-32.5 3q-176 0 -299 41v-1362h-285zM285 1286 q0 -6 12 -20q10 -10 44 -28.5t105 -29.5q-6 31 -6 68q0 23 -3 33t-7 14q-2 6 -16 16q-12 8 -29.5 11.5t-22.5 3.5h-2h-75v-68z" />
<glyph unicode="S" horiz-adv-x="958" d="M0 -45h248l37 2v-6q2 -4 2 -10.5t4 -14.5q8 -29 22 -39q6 -4 16.5 -7t32.5 -3h220h6q4 2 10 2t14 4q29 8 39 23q4 6 7.5 16t3.5 33q0 2 -1.5 4t-1.5 6q-4 14 -12 35q-16 43 -51 115q-35 70 -83 151.5t-101 171.5t-107.5 181.5t-104.5 177.5t-92 166.5t-69 148.5 q-16 41 -27.5 79t-11.5 85q0 59 15.5 112.5t43.5 94.5q29 41 63 68.5t66 43.5q68 35 116 39t58 4h222h219v-284h-219h-219h-7q-4 -2 -10 -2t-14 -4q-29 -8 -39 -23q-4 -6 -7 -16.5t-3 -32.5q0 -6 2 -10q2 -6 4 -15.5t6 -19.5q20 -51 53 -117q35 -70 83 -151.5t102 -171.5 q53 -90 107 -181.5t104.5 -177.5t92 -166.5t68.5 -148.5q16 -41 27.5 -79t11.5 -83q0 -59 -15.5 -112.5t-43.5 -94.5q-29 -41 -62.5 -68.5t-66.5 -44.5q-68 -35 -116 -39t-58 -4h-222h-2q-59 0 -111 15.5t-93 44.5t-69 62.5t-44 66.5q-33 68 -38 116t-5 58z" />
<glyph unicode="T" horiz-adv-x="696" d="M0 1354v284h662v-284h-189v-1762h-285v1762h-188z" />
<glyph unicode="U" horiz-adv-x="1007" d="M0 -45v1683h285v-1683v-78h297h6q4 2 10 2t14 4q29 8 39 23q4 6 7.5 16t3.5 33v1683h284v-759v-924q0 -59 -15.5 -112.5t-43.5 -94.5q-29 -41 -62.5 -68.5t-66.5 -44.5q-68 -35 -116 -39t-58 -4h-443h-141v363z" />
<glyph unicode="V" horiz-adv-x="991" d="M0 -408v2046h285v-1640q74 29 154.5 71t140.5 85q37 27 57 49t25 30v1405h284v-1409q0 -47 -14 -88t-37 -73q-23 -33 -48.5 -58.5t-53.5 -50.5q-57 -47 -124 -86t-132 -72q-66 -33 -128.5 -59.5t-111.5 -46t-79 -29.5l-30 -10z" />
<glyph unicode="W" horiz-adv-x="1671" d="M0 -408v2046h285v-1640q74 29 154.5 71t140.5 85q37 27 57 49t25 30v1354v51h284v-51v-1227v-127l2 -4q4 -6 12.5 -16t22.5 -23q27 -25 69 -52t91 -54q45 -25 91 -47.5t89 -38.5v1640h285v-2046l-187 64q-2 0 -52 17.5t-125 48t-165 74.5t-172 98q-29 18 -54.5 36.5 t-47.5 40.5l-12 -12q-57 -47 -124 -86t-132 -72q-66 -33 -128.5 -59.5t-111.5 -46t-79 -29.5l-30 -10z" />
<glyph unicode="X" horiz-adv-x="1007" d="M0 -408v1385q0 121 57 207q4 4 6.5 8t6.5 8q-8 10 -15.5 21.5t-11.5 23.5q-33 66 -38 115t-5 57v221h285v-219v-6q0 -10 6 -24q10 -29 22 -39q6 -4 16.5 -7.5t32.5 -3.5h222q23 0 33 3.5t14 7.5q8 6 16 18q6 10 9 27.5t6 21.5v4v217h284v-221q0 -6 -2 -35.5t-16 -74.5 q-8 -23 -19.5 -51.5t-31.5 -57.5q2 -4 4 -7t6 -7q29 -41 44 -94.5t15 -112.5v-1385h-284v1385q0 23 -3.5 33t-7.5 14q-8 12 -18 16q-10 8 -26.5 11.5t-22.5 3.5h-109h-110h-7q-4 0 -24 -4q-27 -8 -39 -25q-4 -4 -7 -14.5t-3 -34.5v-1385h-285z" />
<glyph unicode="Y" horiz-adv-x="960" d="M0 1636h279l6 2v-8q0 -8 4 -28q4 -14 8 -26.5t8 -16.5h2h11q41 0 78 -13q42 -14 77 -37q35 23 77 37q37 13 76 13h11h4v2q2 2 6 12q8 16 11.5 37.5t3.5 25.5v2l43 -2h239v-31.5t-10 -68.5t-31.5 -92t-75.5 -98q-35 -33 -85 -52q-45 -18 -95 -18h-10h-2v-2q-4 -4 -6 -12 q-8 -14 -11.5 -35t-3.5 -29v-2v-1604h-284v1604v8q0 4 -1 11.5t-3 17.5q-4 14 -8.5 26.5t-8.5 16.5h-2h-10q-50 0 -95 18q-50 19 -85 52t-55.5 66.5t-32.5 64.5q-23 63 -26 108t-3 51z" />
<glyph unicode="Z" horiz-adv-x="1087" d="M0 -408l662 1762h-236q-23 0 -33 -3t-14 -8q-8 -6 -17 -18q-8 -10 -11 -26.5t-3 -22.5v-2l-67 2h-218q0 6 2.5 35.5t14.5 74.5q14 43 45 97.5t94 97.5q86 57 207 57h440h205l-661 -1761h235h6q4 2 10.5 2t14.5 4q29 11 39 23q4 6 7 16t3 33h285q0 -59 -15.5 -112.5 t-44.5 -94.5t-62.5 -68.5t-68.5 -44.5q-33 -16 -62.5 -25t-53 -13.5t-38 -4.5h-18.5h-647z" />
<glyph unicode="a" horiz-adv-x="1007" d="M0 -408v1244v440q0 6 2 35.5t16 74.5q12 43 43 97.5t95 97.5q86 57 206 57h584v-362v-2v-1682h-284v1330q-33 -6 -53.5 -7.5t-24.5 -1.5h-222q-23 0 -33 -3t-14 -7q-8 -6 -16 -18q-8 -10 -11 -26.5t-3 -22.5v-1244h-285zM285 1190q33 8 77 8h220h6q8 0 24 6q27 7 39 23 q4 4 7.5 14t3.5 33v80h-300q-23 0 -33 -3t-14 -8q-8 -6 -16 -16q-8 -12 -11 -29.5t-3 -21.5v-2v-84z" />
<glyph unicode="b" horiz-adv-x="991" d="M0 -408v1680v4v362h362q8 0 37 -2t74 -16q43 -12 97.5 -43t97.5 -94q57 -86 57 -207q2 -35 8 -47t27 -37q18 -25 56 -59t75 -95q25 -41 40 -92t15 -110v-881q0 -59 -15.5 -112.5t-43.5 -94.5q-29 -41 -62.5 -68.5t-66.5 -44.5q-68 -35 -116 -39t-58 -4h-584zM285 -123 h297h6q8 0 24 6q29 8 39 23q4 6 7.5 16t3.5 33v879v6q-2 4 -2.5 10t-4.5 14q-10 31 -24 39q-4 4 -14.5 7t-32.5 3q-176 0 -299 41v-1077zM285 1286l4 -8t10 -12q10 -10 43 -28.5t104 -29.5q-6 31 -6 68q0 23 -3 33t-5 14q-4 4 -18 16q-12 8 -29.5 11.5t-22.5 3.5h-2h-75v-68 z" />
<glyph unicode="c" horiz-adv-x="946" d="M0 -45v1321q0 121 57 207q29 41 64 68.5t67 43.5q68 35 116 39t58 4h222q119 0 204 -57q43 -29 71 -63.5t44 -67.5q33 -68 37 -116t6 -58h-248l-36 -2v6q-2 4 -2.5 10t-4.5 15q-8 29 -24 38q-4 4 -14.5 7.5t-32.5 3.5h-219h-7q-4 -2 -10 -2t-14 -4q-29 -8 -39 -23 q-4 -6 -7 -16.5t-3 -32.5v-1319v-6q2 -4 2 -10.5t4 -14.5q8 -29 22 -39q6 -4 16.5 -7t32.5 -3h220h6q4 2 10 2t14 4q29 9 39 23q4 6 7.5 16t3.5 33h284q0 -59 -15.5 -112.5t-43.5 -94.5q-29 -41 -62.5 -68.5t-66.5 -44.5q-68 -35 -116 -39t-58 -4h-222h-2q-59 0 -111 15.5 t-93 44.5t-69 62.5t-44 66.5q-33 68 -38 116t-5 58z" />
<glyph unicode="d" horiz-adv-x="1003" d="M0 -408v1905v141h141h443q119 0 204 -57q43 -29 71 -63.5t44 -67.5q33 -68 38 -116t5 -58v-1321q0 -59 -15.5 -112.5t-43.5 -94.5q-29 -41 -62.5 -68.5t-66.5 -44.5q-68 -35 -116 -39t-58 -4h-584zM285 -123h297h6q8 0 24 6q29 8 39 23q4 6 7.5 16t3.5 33v741v578v6 q-2 4 -2.5 10t-4.5 15q-8 29 -24 38q-4 4 -14.5 7.5t-32.5 3.5h-299v-1477z" />
<glyph unicode="e" horiz-adv-x="946" d="M0 -45v1683h803v-284h-518v-164q33 8 77 8h222v-285h-222q-23 0 -33 -3t-14 -7q-8 -6 -16 -18q-6 -10 -10 -26.5t-4 -22.5v-2v-877v-6q2 -4 2 -10.5t4 -14.5q8 -29 22 -39q6 -4 16.5 -7t32.5 -3h220h6q4 2 10 2t14 4q29 8 39 23q4 6 7.5 16t3.5 33h284 q0 -59 -15.5 -112.5t-43.5 -94.5q-29 -41 -62.5 -68.5t-66.5 -44.5q-68 -35 -116 -39t-58 -4h-222h-2q-59 0 -111 15.5t-93 44.5t-69 62.5t-44 66.5q-33 68 -38 116t-5 58z" />
<glyph unicode="f" horiz-adv-x="802" d="M0 -408v1244v440q0 59 15.5 112.5t43.5 94.5q29 41 63 68.5t66 43.5q68 35 116 39t58 4h441v-284h-438h-7q-10 0 -24 -6q-29 -9 -39 -23q-4 -6 -7 -16.5t-3 -32.5v-86q33 8 77 8h222v-285h-222q-23 0 -33 -3t-14 -7q-8 -6 -16 -18q-6 -10 -10 -26.5t-4 -22.5v-1244h-285z " />
<glyph unicode="g" horiz-adv-x="993" d="M0 -266v1542q0 59 15.5 112.5t43.5 94.5q29 41 63 68.5t66 43.5q68 35 116 39t58 4h441v-284h-438h-7q-4 -2 -10 -2t-14 -4q-29 -8 -39 -23q-4 -6 -7 -16.5t-3 -32.5v-1399h297h6q4 2 10 2t14 4q29 8 39 23q4 6 7.5 16t3.5 33v958h-300v285h584v-143v-1100 q0 -59 -15.5 -112.5t-43.5 -94.5q-29 -41 -62.5 -68.5t-66.5 -44.5q-68 -35 -116 -39t-58 -4h-584v142z" />
<glyph unicode="h" horiz-adv-x="1007" d="M0 -408v1244v2v800h285v-448q33 8 77 8h220h6q8 0 24 6q27 6 39 23q4 4 7.5 14t3.5 35v362h284v-2046h-284v1330q-33 -6 -53.5 -7.5t-24.5 -1.5h-222q-23 0 -33 -3t-14 -7q-8 -6 -16 -18q-8 -10 -11 -26.5t-3 -22.5v-1244h-285z" />
<glyph unicode="i" horiz-adv-x="346" d="M0 -408v2046h285v-2046h-285z" />
<glyph unicode="j" horiz-adv-x="1007" d="M0 -45h248l37 2v-6q2 -4 2 -10.5t4 -14.5q8 -29 22 -39q6 -4 16.5 -7t32.5 -3h222h78v1761h284v-2046h-362h-222h-2q-59 0 -111 15.5t-93 42.5q-41 29 -69 63.5t-44 67.5q-33 68 -38 116t-5 58z" />
<glyph unicode="k" horiz-adv-x="862" d="M0 -408v2046h285v-530q8 2 13 2h9h166h12q6 10 9 25q2 4 2 10v174q0 8 2 32.5t12 61.5t35.5 84t79.5 88q37 25 83 39t95 14v-284q-12 0 -12 -2q-4 -4 -9 -23q-2 -4 -2 -10v-176q0 -6 -2 -31t-12 -63q-4 -16 -12.5 -38t-22.5 -44q4 -6 7 -13.5t7 -13.5q27 -59 31 -99 t4 -50v-879q0 -2 1 -6t1 -8q5 -15 9 -19q0 -2 2 -2h10v-285h-2q-49 0 -95.5 14.5t-80.5 41.5q-35 25 -58.5 55.5t-36.5 58.5q-29 59 -31.5 99.5t-2.5 50.5v879q0 4 -1 7t-1 7q-4 14 -9 18h-4q-2 0 -3 1t-5 1h-164q-2 0 -4 -1t-6 -1t-6 -2l-4 -4q-2 0 -2 -4q-2 -4 -2 -20 v-1201h-285z" />
<glyph unicode="l" horiz-adv-x="946" d="M0 -408v2046h285v-1761h297h6q4 2 10 2t14 4q29 8 39 23q4 6 7.5 16t3.5 33h284q0 -59 -15.5 -112.5t-43.5 -94.5q-29 -41 -62.5 -68.5t-66.5 -44.5q-68 -35 -116 -39t-58 -4h-584z" />
<glyph unicode="m" horiz-adv-x="1669" d="M0 -408v2046h436q4 0 43 -2t99 -12q49 -10 107 -27.5t118 -58.5q35 25 71.5 41t71.5 27q88 27 153.5 29.5t71.5 2.5h435v-2046h-283v1762h-152h-6h-18q-14 -2 -30.5 -3t-37.5 -5q-39 -8 -75.5 -21.5t-47.5 -26.5q-10 -10 -10 -11v-11v-1684h-284v1684q-2 10 -2.5 11 t-6.5 9q-16 16 -61 33q-47 16 -96.5 20.5t-57.5 4.5h-2h-151v-1762h-285z" />
<glyph unicode="n" horiz-adv-x="1003" d="M0 -408v2046h436q4 0 43 -2t99 -12q59 -10 128.5 -33.5t135.5 -81.5l12 -12h92v-221v-266v-1418h-284v1684q-2 10 -2.5 11t-6.5 9q-16 16 -61 33q-47 16 -95 20.5t-59 4.5h-2h-151v-1762h-285z" />
<glyph unicode="o" horiz-adv-x="1003" d="M0 -45v1321v221v141h584q6 0 35.5 -2t74.5 -16q43 -12 97.5 -43t95.5 -94q29 -41 44 -94.5t15 -112.5v-1321q0 -59 -15.5 -112.5t-43.5 -94.5q-29 -41 -62.5 -68.5t-66.5 -44.5q-68 -35 -116 -39t-58 -4h-222h-2q-59 0 -111 15.5t-93 44.5t-69 62.5t-44 66.5 q-33 68 -38 116t-5 58zM285 -43v-6q2 -4 2 -10.5t4 -14.5q8 -29 22 -39q6 -4 16.5 -7t32.5 -3h220h6q4 2 10 2t14 4q29 8 39 23q4 6 7.5 16t3.5 33v741v580q0 23 -3.5 33t-7.5 14q-6 8 -18 16q-10 8 -27.5 11.5t-21.5 3.5h-2h-297v-78v-1319z" />
<glyph unicode="p" horiz-adv-x="946" d="M0 -408v2046h584q6 0 35.5 -2t74.5 -16q43 -12 97.5 -43t95.5 -94q29 -41 44 -94.5t15 -112.5v-221v-142h-661v-1321h-285zM285 1198h377v78q0 23 -3.5 33t-7.5 14q-6 8 -18 16q-10 8 -28.5 11.5t-22.5 3.5h-297v-156z" />
<glyph unicode="q" horiz-adv-x="1001" d="M0 -45v741v580q0 6 2 35.5t16 74.5q12 43 43 97.5t95 97.5q86 57 206 57h222q6 0 35.5 -2t74.5 -16q43 -12 97.5 -43t95.5 -94q29 -41 44 -94.5t15 -112.5v-1321v-59l-143 -142v-162q-6 0 -36 2.5t-75 16.5q-4 2 -11 3t-13 5l-25 -27h-59h-222q-6 0 -35.5 2.5t-74.5 16.5 q-43 12 -97.5 43t-95.5 94q-29 41 -44 94.5t-15 112.5zM285 -45q0 -23 3 -33t7 -14q6 -8 18 -17q10 -6 26.5 -10t22.5 -4h87q-4 18 -6.5 37.5t-2.5 40.5h162l60 57v1264q0 23 -3.5 33t-7.5 14q-6 8 -18 16q-10 6 -26.5 10.5t-22.5 4.5h-222q-23 0 -33 -3t-14 -8 q-8 -6 -16 -18q-6 -10 -10 -26.5t-4 -22.5v-2v-1319z" />
<glyph unicode="r" horiz-adv-x="993" d="M0 -408v2046h362q6 0 36 -2t75 -16q43 -12 97.5 -43t97.5 -94q29 -41 42 -94.5t15 -112.5q0 -35 7 -47t28 -37q18 -25 56 -58.5t75 -95.5q25 -41 40 -92t15 -110v-1244h-284v1242v6q-4 8 -7 24q-8 29 -24 39q-4 4 -14.5 7t-32.5 3q-176 0 -299 41v-1362h-285zM285 1286 q0 -6 12 -20q10 -10 44 -28.5t105 -29.5q-6 31 -6 68q0 23 -3 33t-7 14q-2 6 -16 16q-12 8 -29.5 11.5t-22.5 3.5h-2h-75v-68z" />
<glyph unicode="s" horiz-adv-x="958" d="M0 -45h248l37 2v-6q2 -4 2 -10.5t4 -14.5q8 -29 22 -39q6 -4 16.5 -7t32.5 -3h220h6q4 2 10 2t14 4q29 8 39 23q4 6 7.5 16t3.5 33q0 2 -1.5 4t-1.5 6q-4 14 -12 35q-16 43 -51 115q-35 70 -83 151.5t-101 171.5t-107.5 181.5t-104.5 177.5t-92 166.5t-69 148.5 q-16 41 -27.5 79t-11.5 85q0 59 15.5 112.5t43.5 94.5q29 41 63 68.5t66 43.5q68 35 116 39t58 4h222h219v-284h-219h-219h-7q-4 -2 -10 -2t-14 -4q-29 -8 -39 -23q-4 -6 -7 -16.5t-3 -32.5q0 -6 2 -10q2 -6 4 -15.5t6 -19.5q20 -51 53 -117q35 -70 83 -151.5t102 -171.5 q53 -90 107 -181.5t104.5 -177.5t92 -166.5t68.5 -148.5q16 -41 27.5 -79t11.5 -83q0 -59 -15.5 -112.5t-43.5 -94.5q-29 -41 -62.5 -68.5t-66.5 -44.5q-68 -35 -116 -39t-58 -4h-222h-2q-59 0 -111 15.5t-93 44.5t-69 62.5t-44 66.5q-33 68 -38 116t-5 58z" />
<glyph unicode="t" horiz-adv-x="696" d="M0 1354v284h662v-284h-189v-1762h-285v1762h-188z" />
<glyph unicode="u" horiz-adv-x="1007" d="M0 -45v1683h285v-1683v-78h297h6q4 2 10 2t14 4q29 8 39 23q4 6 7.5 16t3.5 33v1683h284v-759v-924q0 -59 -15.5 -112.5t-43.5 -94.5q-29 -41 -62.5 -68.5t-66.5 -44.5q-68 -35 -116 -39t-58 -4h-443h-141v363z" />
<glyph unicode="v" horiz-adv-x="991" d="M0 -408v2046h285v-1640q74 29 154.5 71t140.5 85q37 27 57 49t25 30v1405h284v-1409q0 -47 -14 -88t-37 -73q-23 -33 -48.5 -58.5t-53.5 -50.5q-57 -47 -124 -86t-132 -72q-66 -33 -128.5 -59.5t-111.5 -46t-79 -29.5l-30 -10z" />
<glyph unicode="w" horiz-adv-x="1671" d="M0 -408v2046h285v-1640q74 29 154.5 71t140.5 85q37 27 57 49t25 30v1354v51h284v-51v-1227v-127l2 -4q4 -6 12.5 -16t22.5 -23q27 -25 69 -52t91 -54q45 -25 91 -47.5t89 -38.5v1640h285v-2046l-187 64q-2 0 -52 17.5t-125 48t-165 74.5t-172 98q-29 18 -54.5 36.5 t-47.5 40.5l-12 -12q-57 -47 -124 -86t-132 -72q-66 -33 -128.5 -59.5t-111.5 -46t-79 -29.5l-30 -10z" />
<glyph unicode="x" horiz-adv-x="1007" d="M0 -408v1385q0 121 57 207q4 4 6.5 8t6.5 8q-8 10 -15.5 21.5t-11.5 23.5q-33 66 -38 115t-5 57v221h285v-219v-6q0 -10 6 -24q10 -29 22 -39q6 -4 16.5 -7.5t32.5 -3.5h222q23 0 33 3.5t14 7.5q8 6 16 18q6 10 9 27.5t6 21.5v4v217h284v-221q0 -6 -2 -35.5t-16 -74.5 q-8 -23 -19.5 -51.5t-31.5 -57.5q2 -4 4 -7t6 -7q29 -41 44 -94.5t15 -112.5v-1385h-284v1385q0 23 -3.5 33t-7.5 14q-8 12 -18 16q-10 8 -26.5 11.5t-22.5 3.5h-109h-110h-7q-4 0 -24 -4q-27 -8 -39 -25q-4 -4 -7 -14.5t-3 -34.5v-1385h-285z" />
<glyph unicode="y" horiz-adv-x="960" d="M0 1636h279l6 2v-8q0 -8 4 -28q4 -14 8 -26.5t8 -16.5h2h11q41 0 78 -13q42 -14 77 -37q35 23 77 37q37 13 76 13h11h4v2q2 2 6 12q8 16 11.5 37.5t3.5 25.5v2l43 -2h239v-31.5t-10 -68.5t-31.5 -92t-75.5 -98q-35 -33 -85 -52q-45 -18 -95 -18h-10h-2v-2q-4 -4 -6 -12 q-8 -14 -11.5 -35t-3.5 -29v-2v-1604h-284v1604v8q0 4 -1 11.5t-3 17.5q-4 14 -8.5 26.5t-8.5 16.5h-2h-10q-50 0 -95 18q-50 19 -85 52t-55.5 66.5t-32.5 64.5q-23 63 -26 108t-3 51z" />
<glyph unicode="z" horiz-adv-x="1087" d="M0 -408l662 1762h-236q-23 0 -33 -3t-14 -8q-8 -6 -17 -18q-8 -10 -11 -26.5t-3 -22.5v-2l-67 2h-218q0 6 2.5 35.5t14.5 74.5q14 43 45 97.5t94 97.5q86 57 207 57h440h205l-661 -1761h235h6q4 2 10.5 2t14.5 4q29 11 39 23q4 6 7 16t3 33h285q0 -59 -15.5 -112.5 t-44.5 -94.5t-62.5 -68.5t-68.5 -44.5q-33 -16 -62.5 -25t-53 -13.5t-38 -4.5h-18.5h-647z" />
<glyph unicode="&#x2000;" horiz-adv-x="819" />
<glyph unicode="&#x2001;" horiz-adv-x="1638" />
<glyph unicode="&#x2002;" horiz-adv-x="819" />
<glyph unicode="&#x2003;" horiz-adv-x="1638" />
<glyph unicode="&#x2004;" horiz-adv-x="546" />
<glyph unicode="&#x2005;" horiz-adv-x="409" />
<glyph unicode="&#x2006;" horiz-adv-x="273" />
<glyph unicode="&#x2007;" horiz-adv-x="273" />
<glyph unicode="&#x2008;" horiz-adv-x="204" />
<glyph unicode="&#x2009;" horiz-adv-x="327" />
<glyph unicode="&#x200a;" horiz-adv-x="91" />
<glyph unicode="&#x202f;" horiz-adv-x="327" />
<glyph unicode="&#x205f;" horiz-adv-x="409" />
<glyph unicode="&#xe000;" horiz-adv-x="1638" d="M0 0v1638h1638v-1638h-1638z" />
</font>
</defs>
</svg>
